<svg width="35" height="35" viewBox="0 0 35 35" fill="none" xmlns="http://www.w3.org/2000/svg">
<path d="M34.813 14.8831L34.0537 11.5774C33.9124 10.9337 33.2414 10.5336 32.588 10.6727L30.6103 11.1251C30.0982 11.2469 29.5861 11.0033 29.3035 10.5683C28.5265 9.36786 27.573 8.28917 26.4782 7.38446C26.0367 7.01909 25.8955 6.42754 26.1427 5.92299L27.1316 3.92218C27.4317 3.33064 27.1669 2.59991 26.5665 2.32154L23.4585 0.842686C22.8582 0.546914 22.1165 0.807889 21.834 1.39943L20.7745 3.57422C20.5449 4.06137 19.9975 4.30495 19.4678 4.23535C18.8144 4.14836 18.1257 4.09618 17.4547 4.09618C16.766 4.09618 16.095 4.14836 15.4416 4.23535C14.8942 4.30495 14.3644 4.06137 14.1348 3.57422L13.0754 1.39943C12.7752 0.807889 12.0512 0.546914 11.4508 0.842686L8.34285 2.32154C7.74246 2.61731 7.47762 3.33064 7.77781 3.92218L8.76669 5.92299C9.01391 6.42754 8.85498 7.01909 8.43117 7.38446C7.33634 8.30657 6.36511 9.36786 5.6058 10.5683C5.32326 11.0033 4.81118 11.2469 4.29908 11.1251L2.32128 10.6727C1.66791 10.5336 1.01457 10.9337 0.855646 11.5774L0.0963424 14.8831C-0.0449259 15.5269 0.361201 16.1706 1.01457 16.3272L3.5221 16.8839C3.50444 17.2319 3.46913 17.5625 3.46913 17.9104C3.46913 19.5633 3.76929 21.1639 4.3167 22.6254C4.49329 23.1125 4.36969 23.6693 3.94589 23.9998L2.97469 24.7654C2.44494 25.1829 2.35662 25.9311 2.78042 26.453L4.82882 29.115C5.25262 29.6369 6.01194 29.7239 6.5417 29.3063L7.21273 28.767C7.67185 28.419 8.30755 28.4364 8.74901 28.7844C10.1617 29.8631 11.7686 30.6982 13.5345 31.2027C14.0642 31.3593 14.4527 31.8117 14.4527 32.3684V33.0644C14.4527 33.7255 15.0002 34.2649 15.6712 34.2649H19.1146C19.7856 34.2649 20.333 33.7255 20.333 33.0644V32.3684C20.333 31.8117 20.7215 31.3593 21.2512 31.2027C23.0171 30.6982 24.624 29.8805 26.0367 28.7844C26.4959 28.4364 27.1315 28.4016 27.573 28.767L28.244 29.3063C28.7738 29.7239 29.5331 29.6369 29.9569 29.115L32.1113 26.4704C32.5351 25.9485 32.4468 25.2003 31.917 24.7828L30.9458 24.0172C30.522 23.6867 30.3983 23.1299 30.5749 22.6428C31.1223 21.1639 31.4226 19.5807 31.4226 17.9278C31.4226 17.5799 31.3872 17.2493 31.3696 16.9013L33.8771 16.3446C34.5481 16.1706 34.9543 15.5269 34.813 14.8831ZM17.4017 26.5052C12.5809 26.5052 8.67836 22.6602 8.67836 17.9104C8.67836 13.1607 12.5809 9.31567 17.4017 9.31567C22.2225 9.31567 26.125 13.1607 26.125 17.9104C26.125 22.6602 22.2225 26.5052 17.4017 26.5052Z" fill="white"/>
</svg>
